<svg width="1200" height="750" viewBox="0 0 1200 750" fill="none" xmlns="http://www.w3.org/2000/svg">
  <rect width="1200" height="750" rx="48" fill="#081018" />
  <rect x="40" y="40" width="1120" height="670" rx="36" fill="url(#paint0_linear)" stroke="#233343" />
  <rect x="92" y="96" width="1016" height="116" rx="28" fill="#101A23" stroke="#2B3B4C" />
  <rect x="92" y="244" width="508" height="394" rx="28" fill="#101A23" stroke="#2B3B4C" />
  <rect x="632" y="244" width="476" height="184" rx="28" fill="#101A23" stroke="#2B3B4C" />
  <rect x="632" y="460" width="476" height="178" rx="28" fill="#101A23" stroke="#2B3B4C" />
  <rect x="136" y="138" width="240" height="18" rx="9" fill="#E5EEF7" fill-opacity="0.92" />
  <rect x="136" y="176" width="188" height="14" rx="7" fill="#91A3B8" fill-opacity="0.66" />
  <path d="M152 560L242 446L326 512L418 356L502 414" stroke="#6BC6BD" stroke-width="14" stroke-linecap="round" stroke-linejoin="round" />
  <path d="M152 596H548" stroke="#2B3B4C" stroke-width="12" stroke-linecap="round" />
  <rect x="680" y="286" width="184" height="18" rx="9" fill="#E5EEF7" fill-opacity="0.92" />
  <rect x="680" y="324" width="152" height="14" rx="7" fill="#91A3B8" fill-opacity="0.66" />
  <rect x="680" y="520" width="184" height="18" rx="9" fill="#E5EEF7" fill-opacity="0.92" />
  <rect x="680" y="558" width="152" height="14" rx="7" fill="#91A3B8" fill-opacity="0.66" />
  <path d="M680 392H1060" stroke="#2B3B4C" stroke-width="18" stroke-linecap="round" />
  <path d="M680 392H964" stroke="#C9A56A" stroke-width="18" stroke-linecap="round" />
  <path d="M680 604H1060" stroke="#2B3B4C" stroke-width="18" stroke-linecap="round" />
  <path d="M680 604H996" stroke="#6BC6BD" stroke-width="18" stroke-linecap="round" />
  <text x="92" y="70" fill="#6BC6BD" font-family="Arial, sans-serif" font-size="24" letter-spacing="6">ANALYTICS WORKBENCH</text>
  <defs>
    <linearGradient id="paint0_linear" x1="92" y1="92" x2="1104" y2="692" gradientUnits="userSpaceOnUse">
      <stop stop-color="#111A22" />
      <stop offset="1" stop-color="#091018" />
    </linearGradient>
  </defs>
</svg>
