<svg width="1200" height="750" viewBox="0 0 1200 750" fill="none" xmlns="http://www.w3.org/2000/svg">
  <rect width="1200" height="750" rx="48" fill="#081018" />
  <rect x="40" y="40" width="1120" height="670" rx="36" fill="url(#paint0_linear)" stroke="#233343" />
  <rect x="88" y="96" width="264" height="548" rx="28" fill="#101A23" stroke="#2B3B4C" />
  <rect x="384" y="96" width="680" height="88" rx="24" fill="#101A23" stroke="#2B3B4C" />
  <rect x="384" y="216" width="680" height="428" rx="28" fill="#101A23" stroke="#2B3B4C" />
  <rect x="132" y="144" width="176" height="18" rx="9" fill="#E5EEF7" fill-opacity="0.92" />
  <rect x="132" y="182" width="136" height="14" rx="7" fill="#91A3B8" fill-opacity="0.66" />
  <rect x="132" y="252" width="176" height="44" rx="16" fill="#0F151C" stroke="#324759" />
  <rect x="132" y="316" width="176" height="44" rx="16" fill="#0F151C" stroke="#324759" />
  <rect x="132" y="380" width="176" height="44" rx="16" fill="#0F151C" stroke="#324759" />
  <rect x="132" y="444" width="176" height="44" rx="16" fill="#0F151C" stroke="#324759" />
  <rect x="132" y="508" width="176" height="44" rx="16" fill="#0F151C" stroke="#324759" />
  <rect x="432" y="126" width="240" height="18" rx="9" fill="#E5EEF7" fill-opacity="0.92" />
  <rect x="432" y="256" width="420" height="20" rx="10" fill="#E5EEF7" fill-opacity="0.92" />
  <rect x="432" y="300" width="520" height="16" rx="8" fill="#91A3B8" fill-opacity="0.66" />
  <rect x="432" y="336" width="500" height="16" rx="8" fill="#91A3B8" fill-opacity="0.66" />
  <rect x="432" y="372" width="540" height="16" rx="8" fill="#91A3B8" fill-opacity="0.66" />
  <rect x="432" y="438" width="250" height="140" rx="24" fill="#0F151C" stroke="#324759" />
  <rect x="716" y="438" width="300" height="140" rx="24" fill="#0F151C" stroke="#324759" />
  <text x="88" y="70" fill="#C9A56A" font-family="Arial, sans-serif" font-size="24" letter-spacing="6">KNOWLEDGE BASE</text>
  <defs>
    <linearGradient id="paint0_linear" x1="92" y1="92" x2="1112" y2="694" gradientUnits="userSpaceOnUse">
      <stop stop-color="#111A22" />
      <stop offset="1" stop-color="#091018" />
    </linearGradient>
  </defs>
</svg>
