<svg width="1200" height="750" viewBox="0 0 1200 750" fill="none" xmlns="http://www.w3.org/2000/svg">
  <rect width="1200" height="750" rx="48" fill="#091018" />
  <rect x="40" y="40" width="1120" height="670" rx="36" fill="url(#paint0_linear)" stroke="#213041" />
  <rect x="92" y="96" width="352" height="120" rx="24" fill="#121B24" stroke="#2B394A" />
  <rect x="92" y="248" width="712" height="316" rx="28" fill="#101922" stroke="#2A394A" />
  <rect x="836" y="248" width="272" height="316" rx="28" fill="#101922" stroke="#2A394A" />
  <rect x="92" y="596" width="504" height="60" rx="18" fill="#101922" stroke="#2A394A" />
  <rect x="624" y="596" width="484" height="60" rx="18" fill="#101922" stroke="#2A394A" />
  <circle cx="165" cy="156" r="12" fill="#C9A56A" />
  <rect x="194" y="146" width="184" height="18" rx="9" fill="#E5EEF7" fill-opacity="0.92" />
  <rect x="194" y="176" width="132" height="14" rx="7" fill="#90A2B7" fill-opacity="0.65" />
  <path d="M146 490C198 418 252 468 308 392C364 316 420 360 472 318C524 276 578 326 634 286C690 246 742 274 790 214" stroke="#C9A56A" stroke-width="10" stroke-linecap="round" />
  <rect x="872" y="300" width="200" height="18" rx="9" fill="#E5EEF7" fill-opacity="0.92" />
  <rect x="872" y="338" width="156" height="14" rx="7" fill="#91A3B8" fill-opacity="0.66" />
  <rect x="872" y="386" width="168" height="14" rx="7" fill="#91A3B8" fill-opacity="0.66" />
  <rect x="872" y="432" width="140" height="14" rx="7" fill="#91A3B8" fill-opacity="0.66" />
  <text x="92" y="70" fill="#C9A56A" font-family="Arial, sans-serif" font-size="24" letter-spacing="6">OPERATIONAL DASHBOARD</text>
  <defs>
    <linearGradient id="paint0_linear" x1="130" y1="92" x2="1056" y2="698" gradientUnits="userSpaceOnUse">
      <stop stop-color="#111A23" />
      <stop offset="1" stop-color="#0C1218" />
    </linearGradient>
  </defs>
</svg>
