<svg width="1200" height="750" viewBox="0 0 1200 750" fill="none" xmlns="http://www.w3.org/2000/svg">
  <rect width="1200" height="750" rx="48" fill="#071019" />
  <rect x="40" y="40" width="1120" height="670" rx="36" fill="url(#paint0_linear)" stroke="#253444" />
  <rect x="84" y="96" width="280" height="542" rx="28" fill="#101A23" stroke="#2C3C4D" />
  <rect x="396" y="96" width="352" height="250" rx="28" fill="#101A23" stroke="#2C3C4D" />
  <rect x="780" y="96" width="336" height="250" rx="28" fill="#101A23" stroke="#2C3C4D" />
  <rect x="396" y="378" width="720" height="260" rx="28" fill="#101A23" stroke="#2C3C4D" />
  <rect x="132" y="148" width="184" height="18" rx="9" fill="#E5EEF7" fill-opacity="0.92" />
  <rect x="132" y="186" width="132" height="14" rx="7" fill="#91A3B8" fill-opacity="0.66" />
  <rect x="132" y="246" width="184" height="60" rx="18" fill="#0E151C" stroke="#33475A" />
  <rect x="132" y="330" width="184" height="60" rx="18" fill="#0E151C" stroke="#33475A" />
  <rect x="132" y="414" width="184" height="60" rx="18" fill="#0E151C" stroke="#33475A" />
  <rect x="132" y="498" width="184" height="60" rx="18" fill="#0E151C" stroke="#33475A" />
  <circle cx="555" cy="220" r="76" fill="#0E151C" stroke="#33475A" />
  <circle cx="555" cy="220" r="44" fill="#C9A56A" fill-opacity="0.86" />
  <rect x="850" y="156" width="180" height="18" rx="9" fill="#E5EEF7" fill-opacity="0.92" />
  <rect x="850" y="194" width="140" height="14" rx="7" fill="#91A3B8" fill-opacity="0.66" />
  <rect x="850" y="232" width="198" height="14" rx="7" fill="#91A3B8" fill-opacity="0.66" />
  <path d="M460 520H1052" stroke="#2D3D4F" stroke-width="18" stroke-linecap="round" />
  <path d="M460 520H924" stroke="#6BC6BD" stroke-width="18" stroke-linecap="round" />
  <path d="M460 572H1052" stroke="#2D3D4F" stroke-width="18" stroke-linecap="round" />
  <path d="M460 572H990" stroke="#C9A56A" stroke-width="18" stroke-linecap="round" />
  <text x="84" y="70" fill="#6BC6BD" font-family="Arial, sans-serif" font-size="24" letter-spacing="6">SERVICE MANAGEMENT</text>
  <defs>
    <linearGradient id="paint0_linear" x1="112" y1="104" x2="1072" y2="698" gradientUnits="userSpaceOnUse">
      <stop stop-color="#121A23" />
      <stop offset="1" stop-color="#091018" />
    </linearGradient>
  </defs>
</svg>
